# xmcd
# 
# Track frame offsets:
#     150
#     15332
#     25765
#     43001
#     57950
#     85014
#     104328
#     115308
#     138088
#     154098
#     175226
#     186732
#     207564
#     220805
#     229105
# 
# Disc length: 3178
# 
# Revision: 1
# Processed by: cddbd v1.5.2PL0 Copyright (c) Steve Scherf et al.
# Submitted via: fre:ac v1.0.17
# 
DISCID=ca0c680f
DTITLE=GONTITI - VSOD
DYEAR=2008
DGENRE=Jazz
TTITLE0=行ってきます
TTITLE1=Beautiful Day
TTITLE2=7season 4beat
TTITLE3=チムニ－ソング
TTITLE4=jam-ja-fro
TTITLE5=山の温泉旅館
TTITLE6=prelude to mica
TTITLE7=sound of wind
TTITLE8=パレード
TTITLE9=macaroni eastern
TTITLE10=tampopo
TTITLE11=good night city
TTITLE12=tampopo(vocal version)
TTITLE13=scarborough fair
TTITLE14=課外授業
EXTD=
EXTT0=
EXTT1=
EXTT2=
EXTT3=
EXTT4=
EXTT5=
EXTT6=
EXTT7=
EXTT8=
EXTT9=
EXTT10=
EXTT11=
EXTT12=
EXTT13=
EXTT14=
PLAYORDER=
